
        <svg xmlns="http://www.w3.org/2000/svg" xmlns:xlink="http://www.w3.org/1999/xlink" version="1.1" width="3266.6666666666665" 
        height="1666.5317865287252" viewBox="0 0 3266.6666666666665 1666.5317865287252">
			
			<g transform="scale(13.333333333333334) translate(10, 10)">
				<defs id="SvgjsDefs1229"></defs><g id="SvgjsG1230" featureKey="xG21Y3-0" transform="matrix(0.1699904753871823,0,0,0.1699904753871823,20.00101990945652,19.9973651460914)" fill="#0dceda"><path xmlns="http://www.w3.org/2000/svg" d="M491.682,142.024H8.334c-1.825,0-3.418-1.232-3.875-2.997c-0.457-1.765,0.338-3.616,1.933-4.5L248.066,0.518  c1.209-0.67,2.675-0.67,3.883,0l241.674,134.008c1.594,0.885,2.391,2.736,1.935,4.5  C495.099,140.792,493.506,142.024,491.682,142.024z M23.798,134.024h452.417L250.008,8.59L23.798,134.024z"></path><path xmlns="http://www.w3.org/2000/svg" d="M496.018,499.984H3.997c-2.21,0-4.003-1.791-4.003-3.999c0-2.211,1.793-4.002,4.003-4.002h492.021  c2.211,0,4.004,1.791,4.004,4.002C500.021,498.193,498.229,499.984,496.018,499.984z"></path><path xmlns="http://www.w3.org/2000/svg" d="M410.622,116.023H89.392c-2.21,0-4.002-1.792-4.002-4s1.792-4,4.002-4h321.23c2.212,0,4.004,1.791,4.004,4  S412.834,116.023,410.622,116.023z"></path><path xmlns="http://www.w3.org/2000/svg" d="M250.007,97.301c-18.534,0-33.613-15.069-33.613-33.592c0-18.523,15.079-33.591,33.613-33.591  c18.537,0,33.616,15.068,33.616,33.591C283.623,82.232,268.544,97.301,250.007,97.301z M250.007,38.119  c-14.12,0-25.608,11.48-25.608,25.591s11.488,25.591,25.608,25.591c14.118,0,25.608-11.48,25.608-25.591  S264.125,38.119,250.007,38.119z"></path><g xmlns="http://www.w3.org/2000/svg"><g><g><path d="M67.765,205.357c-10.937,0-22.009-7.37-22.009-21.455c0-18.986,12.888-31.252,32.833-31.252c2.21,0,4.003,1.791,4.003,4     c0,2.209-1.793,4-4.003,4c-15.546,0-24.828,8.693-24.828,23.251c0,9.244,7.259,13.454,14.003,13.454     c6.791,0,13.642-4.121,13.642-13.329c0-2.203-0.587-3.98-1.697-5.141c-0.869-0.907-2.032-1.407-3.278-1.407     c-2.267,0-4.914,1.715-4.914,6.548c0,2.209-1.792,4-4.003,4c-2.21,0-4.002-1.791-4.002-4c0-9.552,6.5-14.548,12.919-14.548     c6.452,0,12.981,4.996,12.981,14.548C89.413,198.03,78.522,205.357,67.765,205.357z"></path><path d="M109.546,161.026H78.523c-2.211,0-4.002-1.791-4.002-4c0-2.209,1.792-4,4.002-4h31.023c2.211,0,4.002,1.791,4.002,4     C113.549,159.235,111.757,161.026,109.546,161.026z"></path><path d="M119.541,205.357c-10.756,0-21.646-7.327-21.646-21.33c0-9.552,6.47-14.548,12.86-14.548     c6.362,0,12.802,4.996,12.802,14.548c0,2.209-1.792,4-4.003,4c-2.21,0-4.002-1.791-4.002-4c0-2.229-0.575-4.02-1.664-5.179     c-2.509-2.672-7.986-1.574-7.986,5.179c0,4.248,1.39,7.614,4.131,10.004c2.46,2.144,5.838,3.325,9.51,3.325     c6.746,0,14.004-4.21,14.004-13.454c0-14.559-9.326-23.251-24.947-23.251c-2.21,0-4.003-1.792-4.003-4c0-2.209,1.792-4,4.003-4     c20.017,0,32.952,12.266,32.952,31.252C141.551,197.988,130.479,205.357,119.541,205.357z"></path></g><g><path d="M67.635,407.041c-2.21,0-4.003-1.791-4.003-3.999V214.029c0-2.209,1.792-4,4.003-4c2.211,0,4.002,1.79,4.002,4v189.013     C71.637,405.25,69.846,407.041,67.635,407.041z"></path><path d="M93.654,407.041c-2.211,0-4.002-1.791-4.002-3.999V214.029c0-2.209,1.792-4,4.002-4c2.21,0,4.003,1.79,4.003,4v189.013     C97.657,405.25,95.864,407.041,93.654,407.041z"></path><path d="M119.673,407.041c-2.212,0-4.003-1.791-4.003-3.999V214.029c0-2.209,1.791-4,4.003-4c2.209,0,4.002,1.79,4.002,4v189.013     C123.675,405.25,121.882,407.041,119.673,407.041z"></path></g><path d="M138.687,423.375H48.622c-2.21,0-4.002-1.792-4.002-4c0-2.209,1.792-4,4.002-4h90.065c2.209,0,4.002,1.791,4.002,4    C142.689,421.583,140.896,423.375,138.687,423.375z"></path></g><g><g><path d="M224.119,205.357c-10.938,0-22.009-7.37-22.009-21.455c0-18.986,12.942-31.252,32.97-31.252c2.211,0,4.003,1.791,4.003,4     c0,2.209-1.792,4-4.003,4c-15.632,0-24.964,8.693-24.964,23.251c0,9.244,7.259,13.454,14.003,13.454     c6.791,0,13.641-4.121,13.641-13.329c0-2.215-0.579-4-1.674-5.163c-0.842-0.893-1.964-1.385-3.161-1.385     c-2.203,0-4.777,1.715-4.777,6.548c0,2.209-1.792,4-4.002,4c-2.211,0-4.003-1.791-4.003-4c0-9.552,6.43-14.548,12.783-14.548     c6.381,0,12.841,4.996,12.841,14.548C245.767,198.03,234.877,205.357,224.119,205.357z"></path><path d="M266.174,161.026h-31.021c-2.21,0-4.003-1.791-4.003-4c0-2.209,1.793-4,4.003-4h31.021c2.214,0,4.005,1.791,4.005,4     C270.179,159.235,268.388,161.026,266.174,161.026z"></path><path d="M275.897,205.357c-10.759,0-21.649-7.327-21.649-21.33c0-9.552,6.541-14.548,12.998-14.548     c6.432,0,12.939,4.996,12.939,14.548c0,2.209-1.792,4-4.003,4c-2.21,0-4.003-1.791-4.003-4c0-2.218-0.582-4.001-1.686-5.157     c-2.572-2.697-8.239-1.619-8.239,5.157c0,4.248,1.39,7.614,4.131,10.004c2.46,2.144,5.838,3.325,9.512,3.325     c6.743,0,14.002-4.21,14.002-13.454c0-14.559-9.273-23.251-24.808-23.251c-2.213,0-4.004-1.792-4.004-4c0-2.209,1.791-4,4.004-4     c19.933,0,32.813,12.266,32.813,31.252C297.904,197.988,286.834,205.357,275.897,205.357z"></path></g><g><path d="M223.988,407.041c-2.21,0-4.002-1.791-4.002-3.999V214.029c0-2.209,1.792-4,4.002-4c2.211,0,4.003,1.79,4.003,4v189.013     C227.992,405.25,226.199,407.041,223.988,407.041z"></path><path d="M250.008,407.041c-2.21,0-4.003-1.791-4.003-3.999V214.029c0-2.209,1.793-4,4.003-4c2.212,0,4.004,1.79,4.004,4v189.013     C254.012,405.25,252.22,407.041,250.008,407.041z"></path><path d="M276.024,407.041c-2.207,0-4.001-1.791-4.001-3.999V214.029c0-2.209,1.794-4,4.001-4c2.213,0,4.006,1.79,4.006,4v189.013     C280.03,405.25,278.237,407.041,276.024,407.041z"></path></g><path d="M295.04,423.375h-90.065c-2.211,0-4.002-1.792-4.002-4c0-2.209,1.792-4,4.002-4h90.065c2.21,0,4.004,1.791,4.004,4    C299.044,421.583,297.25,423.375,295.04,423.375z"></path></g><g><g><path d="M380.473,205.357c-10.937,0-22.007-7.37-22.007-21.455c0-18.986,12.799-31.252,32.606-31.252c2.21,0,4.003,1.791,4.003,4     c0,2.209-1.793,4-4.003,4c-15.405,0-24.602,8.693-24.602,23.251c0,9.244,7.259,13.454,14.002,13.454     c6.791,0,13.643-4.121,13.643-13.329c0-2.184-0.598-3.949-1.733-5.104c-0.913-0.931-2.144-1.443-3.467-1.443     c-2.371,0-5.14,1.715-5.14,6.548c0,2.209-1.793,4-4.002,4c-2.211,0-4.003-1.791-4.003-4c0-9.552,6.611-14.548,13.145-14.548     c6.562,0,13.206,4.996,13.206,14.548C402.121,198.03,391.229,205.357,380.473,205.357z"></path><path d="M421.803,161.026H390.78c-2.211,0-4.001-1.791-4.001-4c0-2.209,1.79-4,4.001-4h31.022c2.212,0,4.003,1.791,4.003,4     C425.806,159.235,424.015,161.026,421.803,161.026z"></path><path d="M432.25,205.357c-10.757,0-21.649-7.327-21.649-21.33c0-9.552,6.61-14.548,13.139-14.548     c6.497,0,13.074,4.996,13.074,14.548c0,2.209-1.792,4-4.003,4c-2.209,0-4.003-1.791-4.003-4c0-2.207-0.591-3.982-1.706-5.134     c-0.881-0.912-2.077-1.414-3.362-1.414c-2.368,0-5.132,1.715-5.132,6.548c0,4.248,1.389,7.614,4.132,10.004     c2.46,2.144,5.837,3.325,9.511,3.325c6.743,0,14.003-4.21,14.003-13.454c0-14.559-9.223-23.251-24.67-23.251     c-2.212,0-4.005-1.792-4.005-4c0-2.209,1.793-4,4.005-4c19.849,0,32.675,12.266,32.675,31.252     C454.258,197.988,443.187,205.357,432.25,205.357z"></path></g><g><path d="M380.344,407.041c-2.211,0-4.004-1.791-4.004-3.999V214.029c0-2.209,1.793-4,4.004-4c2.21,0,4.004,1.79,4.004,4v189.013     C384.348,405.25,382.554,407.041,380.344,407.041z"></path><path d="M406.362,407.041c-2.211,0-4.002-1.791-4.002-3.999V214.029c0-2.209,1.791-4,4.002-4s4.003,1.79,4.003,4v189.013     C410.365,405.25,408.573,407.041,406.362,407.041z"></path><path d="M432.381,407.041c-2.209,0-4.004-1.791-4.004-3.999V214.029c0-2.209,1.795-4,4.004-4c2.211,0,4.004,1.79,4.004,4v189.013     C436.385,405.25,434.592,407.041,432.381,407.041z"></path></g><path d="M451.396,423.375h-90.064c-2.212,0-4.005-1.792-4.005-4c0-2.209,1.793-4,4.005-4h90.064c2.21,0,4.003,1.791,4.003,4    C455.398,421.583,453.605,423.375,451.396,423.375z"></path></g></g><path xmlns="http://www.w3.org/2000/svg" d="M472.99,439.043H27.025c-2.21,0-4.003-1.791-4.003-3.999c0-2.209,1.793-4.002,4.003-4.002H472.99  c2.213,0,4.002,1.793,4.002,4.002C476.992,437.252,475.203,439.043,472.99,439.043z"></path><path xmlns="http://www.w3.org/2000/svg" d="M496.018,468.982H3.997c-2.21,0-4.003-1.791-4.003-4s1.793-4.001,4.003-4.001h492.021c2.211,0,4.004,1.792,4.004,4.001  S498.229,468.982,496.018,468.982z"></path></g><g id="SvgjsG1231" featureKey="n48U4P-0" transform="matrix(1.6265452300678809,0,0,1.6265452300678809,124.251789132121,41.69616162527449)" fill="#0dceda"><path d="M12.3 5.720000000000001 l0 2.48 l-7.66 9.16 l7.86 0 l0 2.64 l-12.04 0 l0 -2.48 l7.66 -9.16 l-7.06 0 l0 -2.64 l11.24 0 z M21.08 5.720000000000001 c3.0266 0 4.54 1.1733 4.54 3.52 c0 1.3467 -0.64666 2.3466 -1.94 3 c0.88 0.25334 1.5367 0.69668 1.97 1.33 s0.65 1.3967 0.65 2.29 c0 1.28 -0.46334 2.29 -1.39 3.03 s-2.1434 1.11 -3.65 1.11 l-6.92 0 l0 -14.28 l6.74 0 z M20.68 11.5 c1.2667 0 1.9 -0.56666 1.9 -1.7 c0 -1.0933 -0.70666 -1.64 -2.12 -1.64 l-2.98 0 l0 3.34 l3.2 0 z M20.86 17.56 c1.5333 0 2.3 -0.62666 2.3 -1.88 c0 -1.36 -0.74666 -2.04 -2.24 -2.04 l-3.44 0 l0 3.92 l3.38 0 z M32.879999999999995 9.38 c3.0134 0.01334 4.52 0.9933 4.52 2.94 l0 5.48 c0 1.0133 0.12 1.7467 0.36 2.2 l-2.88 0 c-0.10666 -0.32 -0.17332 -0.65334 -0.19998 -1 c-0.84 0.85334 -2 1.28 -3.48 1.28 c-1.08 0 -1.9367 -0.27334 -2.57 -0.82 s-0.95 -1.3067 -0.95 -2.28 c0 -0.94666 0.3 -1.68 0.9 -2.2 c0.61334 -0.54666 1.7267 -0.89332 3.34 -1.04 c1.1467 -0.12 1.8733 -0.27 2.18 -0.45 s0.46 -0.45666 0.46 -0.83 c0 -0.46666 -0.14 -0.81332 -0.42 -1.04 s-0.74666 -0.34 -1.4 -0.34 c-0.6 0 -1.0533 0.12334 -1.36 0.37 s-0.48666 0.64332 -0.54 1.19 l-2.84 0 c0.06666 -1.1333 0.53332 -1.9933 1.4 -2.58 s2.0266 -0.88 3.48 -0.88 z M30.52 17.06 c0 0.88 0.58 1.32 1.74 1.32 c1.52 -0.01334 2.2866 -0.79334 2.3 -2.34 l0 -1.1 c-0.22666 0.22666 -0.8 0.39332 -1.72 0.49998 c-0.8 0.09334 -1.3867 0.25668 -1.76 0.49002 s-0.56 0.61 -0.56 1.13 z M45.53999999999999 9.38 c1.32 0 2.2766 0.33338 2.87 1 s0.89 1.7267 0.89 3.18 l0 6.44 l-2.84 0 l0 -5.86 c0 -0.85334 -0.13666 -1.4867 -0.41 -1.9 s-0.74334 -0.62 -1.41 -0.62 c-0.77334 0 -1.3333 0.23334 -1.68 0.7 s-0.52 1.2333 -0.52 2.3 l0 5.38 l-2.84 0 l0 -10.34 l2.7 0 l0 1.44 l0.06 0 c0.70666 -1.1467 1.7667 -1.72 3.18 -1.72 z M54.559999999999995 5.720000000000001 l0 7.66 l3.58 -3.72 l3.36 0 l-3.9 3.8 l4.34 6.54 l-3.44 0 l-2.84 -4.62 l-1.1 1.06 l0 3.56 l-2.84 0 l0 -14.28 l2.84 0 z"></path></g>
			</g>
		</svg>
	